<?xml version="1.0" encoding="UTF-8" ?>
<svg version="1.1" width="32" height="32" xmlns="http://www.w3.org/2000/svg" shape-rendering="crispEdges">
    <rect x="9" y="1" width="1" height="1" fill="#E31717" />
    <rect x="10" y="1" width="1" height="1" fill="#E31717" />
    <rect x="11" y="1" width="1" height="1" fill="#E31717" />
    <rect x="12" y="1" width="1" height="1" fill="#E31717" />
    <rect x="13" y="1" width="1" height="1" fill="#E31717" />
    <rect x="8" y="2" width="1" height="1" fill="#E31717" />
    <rect x="9" y="2" width="1" height="1" fill="#E31717" />
    <rect x="10" y="2" width="1" height="1" fill="#E31717" />
    <rect x="11" y="2" width="1" height="1" fill="#E31717" />
    <rect x="12" y="2" width="1" height="1" fill="#E31717" />
    <rect x="13" y="2" width="1" height="1" fill="#E31717" />
    <rect x="14" y="2" width="1" height="1" fill="#E31717" />
    <rect x="7" y="3" width="1" height="1" fill="#E31717" />
    <rect x="8" y="3" width="1" height="1" fill="#E31717" />
    <rect x="9" y="3" width="1" height="1" fill="#E31717" />
    <rect x="10" y="3" width="1" height="1" fill="#E31717" />
    <rect x="11" y="3" width="1" height="1" fill="#E31717" />
    <rect x="12" y="3" width="1" height="1" fill="#E31717" />
    <rect x="13" y="3" width="1" height="1" fill="#E31717" />
    <rect x="14" y="3" width="1" height="1" fill="#E31717" />
    <rect x="7" y="4" width="1" height="1" fill="#E31717" />
    <rect x="8" y="4" width="1" height="1" fill="#E31717" />
    <rect x="9" y="4" width="1" height="1" fill="#FFFFFF" />
    <rect x="10" y="4" width="1" height="1" fill="#FFFFFF" />
    <rect x="11" y="4" width="1" height="1" fill="#FFFFFF" />
    <rect x="12" y="4" width="1" height="1" fill="#FFFFFF" />
    <rect x="13" y="4" width="1" height="1" fill="#FFFFFF" />
    <rect x="14" y="4" width="1" height="1" fill="#FFFFFF" />
    <rect x="7" y="5" width="1" height="1" fill="#E31717" />
    <rect x="8" y="5" width="1" height="1" fill="#FFFFFF" />
    <rect x="9" y="5" width="1" height="1" fill="#EEC39A" />
    <rect x="10" y="5" width="1" height="1" fill="#EEC39A" />
    <rect x="11" y="5" width="1" height="1" fill="#EEC39A" />
    <rect x="12" y="5" width="1" height="1" fill="#EEC39A" />
    <rect x="13" y="5" width="1" height="1" fill="#EEC39A" />
    <rect x="14" y="5" width="1" height="1" fill="#EEC39A" />
    <rect x="7" y="6" width="1" height="1" fill="#E31717" />
    <rect x="8" y="6" width="1" height="1" fill="#FFFFFF" />
    <rect x="9" y="6" width="1" height="1" fill="#EEC39A" />
    <rect x="10" y="6" width="1" height="1" fill="#EEC39A" />
    <rect x="11" y="6" width="1" height="1" fill="#000000" />
    <rect x="12" y="6" width="1" height="1" fill="#EEC39A" />
    <rect x="13" y="6" width="1" height="1" fill="#EEC39A" />
    <rect x="14" y="6" width="1" height="1" fill="#000000" />
    <rect x="7" y="7" width="1" height="1" fill="#E31717" />
    <rect x="8" y="7" width="1" height="1" fill="#BDCBD3" />
    <rect x="9" y="7" width="1" height="1" fill="#BDCBD3" />
    <rect x="10" y="7" width="1" height="1" fill="#EEC39A" />
    <rect x="11" y="7" width="1" height="1" fill="#EEC39A" />
    <rect x="12" y="7" width="1" height="1" fill="#EEC39A" />
    <rect x="13" y="7" width="1" height="1" fill="#EEC39A" />
    <rect x="14" y="7" width="1" height="1" fill="#EEC39A" />
    <rect x="7" y="8" width="1" height="1" fill="#E31717" />
    <rect x="8" y="8" width="1" height="1" fill="#BDCBD3" />
    <rect x="9" y="8" width="1" height="1" fill="#BDCBD3" />
    <rect x="10" y="8" width="1" height="1" fill="#BDCBD3" />
    <rect x="11" y="8" width="1" height="1" fill="#BDCBD3" />
    <rect x="12" y="8" width="1" height="1" fill="#BDCBD3" />
    <rect x="13" y="8" width="1" height="1" fill="#BDCBD3" />
    <rect x="14" y="8" width="1" height="1" fill="#BDCBD3" />
    <rect x="7" y="9" width="1" height="1" fill="#FFFFFF" />
    <rect x="8" y="9" width="1" height="1" fill="#BDCBD3" />
    <rect x="9" y="9" width="1" height="1" fill="#BDCBD3" />
    <rect x="10" y="9" width="1" height="1" fill="#BDCBD3" />
    <rect x="11" y="9" width="1" height="1" fill="#BDCBD3" />
    <rect x="12" y="9" width="1" height="1" fill="#BDCBD3" />
    <rect x="13" y="9" width="1" height="1" fill="#BDCBD3" />
    <rect x="14" y="9" width="1" height="1" fill="#BDCBD3" />
    <rect x="7" y="10" width="1" height="1" fill="#E31717" />
    <rect x="8" y="10" width="1" height="1" fill="#E31717" />
    <rect x="9" y="10" width="1" height="1" fill="#E31717" />
    <rect x="10" y="10" width="1" height="1" fill="#BDCBD3" />
    <rect x="11" y="10" width="1" height="1" fill="#BDCBD3" />
    <rect x="12" y="10" width="1" height="1" fill="#BDCBD3" />
    <rect x="13" y="10" width="1" height="1" fill="#BDCBD3" />
    <rect x="14" y="10" width="1" height="1" fill="#BDCBD3" />
    <rect x="7" y="11" width="1" height="1" fill="#E31717" />
    <rect x="8" y="11" width="1" height="1" fill="#E31717" />
    <rect x="9" y="11" width="1" height="1" fill="#E31717" />
    <rect x="10" y="11" width="1" height="1" fill="#E31717" />
    <rect x="11" y="11" width="1" height="1" fill="#E31717" />
    <rect x="12" y="11" width="1" height="1" fill="#E31717" />
    <rect x="13" y="11" width="1" height="1" fill="#BDCBD3" />
    <rect x="14" y="11" width="1" height="1" fill="#E31717" />
    <rect x="7" y="12" width="1" height="1" fill="#E31717" />
    <rect x="8" y="12" width="1" height="1" fill="#E31717" />
    <rect x="9" y="12" width="1" height="1" fill="#E31717" />
    <rect x="10" y="12" width="1" height="1" fill="#E31717" />
    <rect x="11" y="12" width="1" height="1" fill="#E31717" />
    <rect x="12" y="12" width="1" height="1" fill="#E31717" />
    <rect x="13" y="12" width="1" height="1" fill="#E31717" />
    <rect x="14" y="12" width="1" height="1" fill="#E31717" />
    <rect x="15" y="12" width="1" height="1" fill="#E31717" />
    <rect x="7" y="13" width="1" height="1" fill="#E31717" />
    <rect x="8" y="13" width="1" height="1" fill="#E31717" />
    <rect x="9" y="13" width="1" height="1" fill="#B71818" />
    <rect x="10" y="13" width="1" height="1" fill="#E31717" />
    <rect x="11" y="13" width="1" height="1" fill="#E31717" />
    <rect x="12" y="13" width="1" height="1" fill="#E31717" />
    <rect x="13" y="13" width="1" height="1" fill="#E31717" />
    <rect x="14" y="13" width="1" height="1" fill="#FFFFFF" />
    <rect x="15" y="13" width="1" height="1" fill="#E31717" />
    <rect x="16" y="13" width="1" height="1" fill="#E31717" />
    <rect x="7" y="14" width="1" height="1" fill="#E31717" />
    <rect x="8" y="14" width="1" height="1" fill="#E31717" />
    <rect x="9" y="14" width="1" height="1" fill="#B71818" />
    <rect x="10" y="14" width="1" height="1" fill="#E31717" />
    <rect x="11" y="14" width="1" height="1" fill="#E31717" />
    <rect x="12" y="14" width="1" height="1" fill="#B71818" />
    <rect x="13" y="14" width="1" height="1" fill="#B71818" />
    <rect x="14" y="14" width="1" height="1" fill="#E31717" />
    <rect x="15" y="14" width="1" height="1" fill="#E31717" />
    <rect x="16" y="14" width="1" height="1" fill="#E31717" />
    <rect x="7" y="15" width="1" height="1" fill="#E31717" />
    <rect x="8" y="15" width="1" height="1" fill="#E31717" />
    <rect x="9" y="15" width="1" height="1" fill="#B71818" />
    <rect x="10" y="15" width="1" height="1" fill="#E31717" />
    <rect x="11" y="15" width="1" height="1" fill="#E31717" />
    <rect x="12" y="15" width="1" height="1" fill="#E31717" />
    <rect x="13" y="15" width="1" height="1" fill="#E31717" />
    <rect x="14" y="15" width="1" height="1" fill="#B71818" />
    <rect x="15" y="15" width="1" height="1" fill="#FFFFFF" />
    <rect x="16" y="15" width="1" height="1" fill="#E31717" />
    <rect x="7" y="16" width="1" height="1" fill="#E31717" />
    <rect x="8" y="16" width="1" height="1" fill="#E31717" />
    <rect x="9" y="16" width="1" height="1" fill="#E31717" />
    <rect x="10" y="16" width="1" height="1" fill="#B71818" />
    <rect x="11" y="16" width="1" height="1" fill="#B71818" />
    <rect x="12" y="16" width="1" height="1" fill="#E31717" />
    <rect x="13" y="16" width="1" height="1" fill="#EEC39A" />
    <rect x="14" y="16" width="1" height="1" fill="#EEC39A" />
    <rect x="15" y="16" width="1" height="1" fill="#E31717" />
    <rect x="16" y="16" width="1" height="1" fill="#E31717" />
    <rect x="17" y="16" width="1" height="1" fill="#EEC39A" />
    <rect x="7" y="17" width="1" height="1" fill="#E31717" />
    <rect x="8" y="17" width="1" height="1" fill="#E31717" />
    <rect x="9" y="17" width="1" height="1" fill="#E31717" />
    <rect x="10" y="17" width="1" height="1" fill="#E31717" />
    <rect x="11" y="17" width="1" height="1" fill="#E31717" />
    <rect x="12" y="17" width="1" height="1" fill="#B71818" />
    <rect x="13" y="17" width="1" height="1" fill="#EEC39A" />
    <rect x="14" y="17" width="1" height="1" fill="#663931" />
    <rect x="15" y="17" width="1" height="1" fill="#FFFFFF" />
    <rect x="16" y="17" width="1" height="1" fill="#E31717" />
    <rect x="18" y="17" width="1" height="1" fill="#663931" />
    <rect x="7" y="18" width="1" height="1" fill="#E31717" />
    <rect x="8" y="18" width="1" height="1" fill="#E31717" />
    <rect x="9" y="18" width="1" height="1" fill="#E31717" />
    <rect x="10" y="18" width="1" height="1" fill="#E31717" />
    <rect x="11" y="18" width="1" height="1" fill="#E31717" />
    <rect x="12" y="18" width="1" height="1" fill="#E31717" />
    <rect x="13" y="18" width="1" height="1" fill="#E31717" />
    <rect x="14" y="18" width="1" height="1" fill="#E31717" />
    <rect x="15" y="18" width="1" height="1" fill="#663931" />
    <rect x="16" y="18" width="1" height="1" fill="#663931" />
    <rect x="19" y="18" width="1" height="1" fill="#663931" />
    <rect x="7" y="19" width="1" height="1" fill="#E31717" />
    <rect x="8" y="19" width="1" height="1" fill="#E31717" />
    <rect x="9" y="19" width="1" height="1" fill="#E31717" />
    <rect x="10" y="19" width="1" height="1" fill="#E31717" />
    <rect x="11" y="19" width="1" height="1" fill="#E31717" />
    <rect x="12" y="19" width="1" height="1" fill="#E31717" />
    <rect x="13" y="19" width="1" height="1" fill="#E31717" />
    <rect x="14" y="19" width="1" height="1" fill="#FFFFFF" />
    <rect x="15" y="19" width="1" height="1" fill="#E31717" />
    <rect x="17" y="19" width="1" height="1" fill="#663931" />
    <rect x="19" y="19" width="1" height="1" fill="#663931" />
    <rect x="23" y="19" width="1" height="1" fill="#000000" />
    <rect x="24" y="19" width="1" height="1" fill="#000000" />
    <rect x="25" y="19" width="1" height="1" fill="#000000" />
    <rect x="26" y="19" width="1" height="1" fill="#000000" />
    <rect x="27" y="19" width="1" height="1" fill="#000000" />
    <rect x="7" y="20" width="1" height="1" fill="#000000" />
    <rect x="8" y="20" width="1" height="1" fill="#000000" />
    <rect x="9" y="20" width="1" height="1" fill="#000000" />
    <rect x="10" y="20" width="1" height="1" fill="#000000" />
    <rect x="11" y="20" width="1" height="1" fill="#000000" />
    <rect x="12" y="20" width="1" height="1" fill="#000000" />
    <rect x="13" y="20" width="1" height="1" fill="#D8A122" />
    <rect x="14" y="20" width="1" height="1" fill="#D8A122" />
    <rect x="17" y="20" width="1" height="1" fill="#663931" />
    <rect x="20" y="20" width="1" height="1" fill="#663931" />
    <rect x="22" y="20" width="1" height="1" fill="#000000" />
    <rect x="23" y="20" width="1" height="1" fill="#FFFFFF" />
    <rect x="24" y="20" width="1" height="1" fill="#FFFFFF" />
    <rect x="25" y="20" width="1" height="1" fill="#FFFFFF" />
    <rect x="26" y="20" width="1" height="1" fill="#FFFFFF" />
    <rect x="27" y="20" width="1" height="1" fill="#FFFFFF" />
    <rect x="28" y="20" width="1" height="1" fill="#000000" />
    <rect x="8" y="21" width="1" height="1" fill="#E31717" />
    <rect x="9" y="21" width="1" height="1" fill="#E31717" />
    <rect x="10" y="21" width="1" height="1" fill="#E31717" />
    <rect x="11" y="21" width="1" height="1" fill="#E31717" />
    <rect x="12" y="21" width="1" height="1" fill="#E31717" />
    <rect x="13" y="21" width="1" height="1" fill="#E31717" />
    <rect x="14" y="21" width="1" height="1" fill="#E31717" />
    <rect x="18" y="21" width="1" height="1" fill="#663931" />
    <rect x="21" y="21" width="1" height="1" fill="#000000" />
    <rect x="22" y="21" width="1" height="1" fill="#FFFFFF" />
    <rect x="23" y="21" width="1" height="1" fill="#FFFFFF" />
    <rect x="24" y="21" width="1" height="1" fill="#000000" />
    <rect x="25" y="21" width="1" height="1" fill="#000000" />
    <rect x="26" y="21" width="1" height="1" fill="#000000" />
    <rect x="27" y="21" width="1" height="1" fill="#FFFFFF" />
    <rect x="28" y="21" width="1" height="1" fill="#FFFFFF" />
    <rect x="29" y="21" width="1" height="1" fill="#000000" />
    <rect x="1" y="22" width="1" height="1" fill="#000000" />
    <rect x="2" y="22" width="1" height="1" fill="#000000" />
    <rect x="3" y="22" width="1" height="1" fill="#000000" />
    <rect x="4" y="22" width="1" height="1" fill="#000000" />
    <rect x="5" y="22" width="1" height="1" fill="#000000" />
    <rect x="6" y="22" width="1" height="1" fill="#000000" />
    <rect x="7" y="22" width="1" height="1" fill="#000000" />
    <rect x="8" y="22" width="1" height="1" fill="#000000" />
    <rect x="9" y="22" width="1" height="1" fill="#E31717" />
    <rect x="10" y="22" width="1" height="1" fill="#E31717" />
    <rect x="11" y="22" width="1" height="1" fill="#E31717" />
    <rect x="12" y="22" width="1" height="1" fill="#E31717" />
    <rect x="13" y="22" width="1" height="1" fill="#E31717" />
    <rect x="14" y="22" width="1" height="1" fill="#E31717" />
    <rect x="15" y="22" width="1" height="1" fill="#000000" />
    <rect x="16" y="22" width="1" height="1" fill="#000000" />
    <rect x="17" y="22" width="1" height="1" fill="#000000" />
    <rect x="18" y="22" width="1" height="1" fill="#000000" />
    <rect x="19" y="22" width="1" height="1" fill="#663931" />
    <rect x="20" y="22" width="1" height="1" fill="#663931" />
    <rect x="21" y="22" width="1" height="1" fill="#663931" />
    <rect x="22" y="22" width="1" height="1" fill="#FFFFFF" />
    <rect x="23" y="22" width="1" height="1" fill="#000000" />
    <rect x="27" y="22" width="1" height="1" fill="#000000" />
    <rect x="28" y="22" width="1" height="1" fill="#FFFFFF" />
    <rect x="29" y="22" width="1" height="1" fill="#FFFFFF" />
    <rect x="30" y="22" width="1" height="1" fill="#000000" />
    <rect x="0" y="23" width="1" height="1" fill="#000000" />
    <rect x="1" y="23" width="1" height="1" fill="#FFFFFF" />
    <rect x="2" y="23" width="1" height="1" fill="#FFFFFF" />
    <rect x="3" y="23" width="1" height="1" fill="#FFFFFF" />
    <rect x="4" y="23" width="1" height="1" fill="#FFFFFF" />
    <rect x="5" y="23" width="1" height="1" fill="#FFFFFF" />
    <rect x="6" y="23" width="1" height="1" fill="#FFFFFF" />
    <rect x="7" y="23" width="1" height="1" fill="#FFFFFF" />
    <rect x="8" y="23" width="1" height="1" fill="#FFFFFF" />
    <rect x="9" y="23" width="1" height="1" fill="#FFFFFF" />
    <rect x="10" y="23" width="1" height="1" fill="#FFFFFF" />
    <rect x="11" y="23" width="1" height="1" fill="#E31717" />
    <rect x="12" y="23" width="1" height="1" fill="#E31717" />
    <rect x="13" y="23" width="1" height="1" fill="#E31717" />
    <rect x="14" y="23" width="1" height="1" fill="#E31717" />
    <rect x="15" y="23" width="1" height="1" fill="#E31717" />
    <rect x="16" y="23" width="1" height="1" fill="#FFFFFF" />
    <rect x="17" y="23" width="1" height="1" fill="#FFFFFF" />
    <rect x="18" y="23" width="1" height="1" fill="#FFFFFF" />
    <rect x="19" y="23" width="1" height="1" fill="#FFFFFF" />
    <rect x="20" y="23" width="1" height="1" fill="#FFFFFF" />
    <rect x="21" y="23" width="1" height="1" fill="#663931" />
    <rect x="22" y="23" width="1" height="1" fill="#000000" />
    <rect x="28" y="23" width="1" height="1" fill="#000000" />
    <rect x="29" y="23" width="1" height="1" fill="#FFFFFF" />
    <rect x="30" y="23" width="1" height="1" fill="#FFFFFF" />
    <rect x="31" y="23" width="1" height="1" fill="#000000" />
    <rect x="1" y="24" width="1" height="1" fill="#000000" />
    <rect x="2" y="24" width="1" height="1" fill="#000000" />
    <rect x="3" y="24" width="1" height="1" fill="#000000" />
    <rect x="4" y="24" width="1" height="1" fill="#000000" />
    <rect x="5" y="24" width="1" height="1" fill="#FFFFFF" />
    <rect x="6" y="24" width="1" height="1" fill="#000000" />
    <rect x="7" y="24" width="1" height="1" fill="#000000" />
    <rect x="8" y="24" width="1" height="1" fill="#000000" />
    <rect x="9" y="24" width="1" height="1" fill="#000000" />
    <rect x="10" y="24" width="1" height="1" fill="#000000" />
    <rect x="11" y="24" width="1" height="1" fill="#000000" />
    <rect x="12" y="24" width="1" height="1" fill="#E31717" />
    <rect x="13" y="24" width="1" height="1" fill="#E31717" />
    <rect x="14" y="24" width="1" height="1" fill="#E31717" />
    <rect x="15" y="24" width="1" height="1" fill="#E31717" />
    <rect x="16" y="24" width="1" height="1" fill="#000000" />
    <rect x="17" y="24" width="1" height="1" fill="#000000" />
    <rect x="18" y="24" width="1" height="1" fill="#000000" />
    <rect x="19" y="24" width="1" height="1" fill="#000000" />
    <rect x="20" y="24" width="1" height="1" fill="#FFFFFF" />
    <rect x="21" y="24" width="1" height="1" fill="#000000" />
    <rect x="29" y="24" width="1" height="1" fill="#000000" />
    <rect x="30" y="24" width="1" height="1" fill="#FFFFFF" />
    <rect x="31" y="24" width="1" height="1" fill="#000000" />
    <rect x="4" y="25" width="1" height="1" fill="#000000" />
    <rect x="5" y="25" width="1" height="1" fill="#FFFFFF" />
    <rect x="6" y="25" width="1" height="1" fill="#000000" />
    <rect x="13" y="25" width="1" height="1" fill="#E31717" />
    <rect x="14" y="25" width="1" height="1" fill="#E31717" />
    <rect x="15" y="25" width="1" height="1" fill="#E31717" />
    <rect x="19" y="25" width="1" height="1" fill="#000000" />
    <rect x="20" y="25" width="1" height="1" fill="#FFFFFF" />
    <rect x="21" y="25" width="1" height="1" fill="#000000" />
    <rect x="29" y="25" width="1" height="1" fill="#000000" />
    <rect x="30" y="25" width="1" height="1" fill="#FFFFFF" />
    <rect x="31" y="25" width="1" height="1" fill="#000000" />
    <rect x="4" y="26" width="1" height="1" fill="#000000" />
    <rect x="5" y="26" width="1" height="1" fill="#FFFFFF" />
    <rect x="6" y="26" width="1" height="1" fill="#000000" />
    <rect x="13" y="26" width="1" height="1" fill="#000000" />
    <rect x="14" y="26" width="1" height="1" fill="#000000" />
    <rect x="15" y="26" width="1" height="1" fill="#000000" />
    <rect x="19" y="26" width="1" height="1" fill="#000000" />
    <rect x="20" y="26" width="1" height="1" fill="#FFFFFF" />
    <rect x="21" y="26" width="1" height="1" fill="#000000" />
    <rect x="28" y="26" width="1" height="1" fill="#000000" />
    <rect x="29" y="26" width="1" height="1" fill="#FFFFFF" />
    <rect x="30" y="26" width="1" height="1" fill="#FFFFFF" />
    <rect x="31" y="26" width="1" height="1" fill="#000000" />
    <rect x="4" y="27" width="1" height="1" fill="#000000" />
    <rect x="5" y="27" width="1" height="1" fill="#FFFFFF" />
    <rect x="6" y="27" width="1" height="1" fill="#000000" />
    <rect x="14" y="27" width="1" height="1" fill="#000000" />
    <rect x="15" y="27" width="1" height="1" fill="#000000" />
    <rect x="16" y="27" width="1" height="1" fill="#000000" />
    <rect x="19" y="27" width="1" height="1" fill="#000000" />
    <rect x="20" y="27" width="1" height="1" fill="#FFFFFF" />
    <rect x="21" y="27" width="1" height="1" fill="#000000" />
    <rect x="28" y="27" width="1" height="1" fill="#000000" />
    <rect x="29" y="27" width="1" height="1" fill="#FFFFFF" />
    <rect x="30" y="27" width="1" height="1" fill="#000000" />
    <rect x="4" y="28" width="1" height="1" fill="#000000" />
    <rect x="5" y="28" width="1" height="1" fill="#FFFFFF" />
    <rect x="6" y="28" width="1" height="1" fill="#000000" />
    <rect x="19" y="28" width="1" height="1" fill="#000000" />
    <rect x="20" y="28" width="1" height="1" fill="#FFFFFF" />
    <rect x="21" y="28" width="1" height="1" fill="#000000" />
    <rect x="27" y="28" width="1" height="1" fill="#000000" />
    <rect x="28" y="28" width="1" height="1" fill="#FFFFFF" />
    <rect x="29" y="28" width="1" height="1" fill="#FFFFFF" />
    <rect x="30" y="28" width="1" height="1" fill="#000000" />
    <rect x="1" y="29" width="1" height="1" fill="#000000" />
    <rect x="2" y="29" width="1" height="1" fill="#000000" />
    <rect x="3" y="29" width="1" height="1" fill="#000000" />
    <rect x="4" y="29" width="1" height="1" fill="#000000" />
    <rect x="5" y="29" width="1" height="1" fill="#FFFFFF" />
    <rect x="6" y="29" width="1" height="1" fill="#000000" />
    <rect x="7" y="29" width="1" height="1" fill="#000000" />
    <rect x="8" y="29" width="1" height="1" fill="#000000" />
    <rect x="9" y="29" width="1" height="1" fill="#000000" />
    <rect x="10" y="29" width="1" height="1" fill="#000000" />
    <rect x="11" y="29" width="1" height="1" fill="#000000" />
    <rect x="12" y="29" width="1" height="1" fill="#000000" />
    <rect x="13" y="29" width="1" height="1" fill="#000000" />
    <rect x="14" y="29" width="1" height="1" fill="#000000" />
    <rect x="15" y="29" width="1" height="1" fill="#000000" />
    <rect x="16" y="29" width="1" height="1" fill="#000000" />
    <rect x="17" y="29" width="1" height="1" fill="#000000" />
    <rect x="18" y="29" width="1" height="1" fill="#000000" />
    <rect x="19" y="29" width="1" height="1" fill="#000000" />
    <rect x="20" y="29" width="1" height="1" fill="#FFFFFF" />
    <rect x="21" y="29" width="1" height="1" fill="#000000" />
    <rect x="22" y="29" width="1" height="1" fill="#000000" />
    <rect x="23" y="29" width="1" height="1" fill="#000000" />
    <rect x="24" y="29" width="1" height="1" fill="#000000" />
    <rect x="25" y="29" width="1" height="1" fill="#000000" />
    <rect x="26" y="29" width="1" height="1" fill="#000000" />
    <rect x="27" y="29" width="1" height="1" fill="#FFFFFF" />
    <rect x="28" y="29" width="1" height="1" fill="#FFFFFF" />
    <rect x="29" y="29" width="1" height="1" fill="#000000" />
    <rect x="0" y="30" width="1" height="1" fill="#000000" />
    <rect x="1" y="30" width="1" height="1" fill="#FFFFFF" />
    <rect x="2" y="30" width="1" height="1" fill="#FFFFFF" />
    <rect x="3" y="30" width="1" height="1" fill="#FFFFFF" />
    <rect x="4" y="30" width="1" height="1" fill="#FFFFFF" />
    <rect x="5" y="30" width="1" height="1" fill="#FFFFFF" />
    <rect x="6" y="30" width="1" height="1" fill="#FFFFFF" />
    <rect x="7" y="30" width="1" height="1" fill="#FFFFFF" />
    <rect x="8" y="30" width="1" height="1" fill="#FFFFFF" />
    <rect x="9" y="30" width="1" height="1" fill="#FFFFFF" />
    <rect x="10" y="30" width="1" height="1" fill="#FFFFFF" />
    <rect x="11" y="30" width="1" height="1" fill="#FFFFFF" />
    <rect x="12" y="30" width="1" height="1" fill="#FFFFFF" />
    <rect x="13" y="30" width="1" height="1" fill="#FFFFFF" />
    <rect x="14" y="30" width="1" height="1" fill="#FFFFFF" />
    <rect x="15" y="30" width="1" height="1" fill="#FFFFFF" />
    <rect x="16" y="30" width="1" height="1" fill="#FFFFFF" />
    <rect x="17" y="30" width="1" height="1" fill="#FFFFFF" />
    <rect x="18" y="30" width="1" height="1" fill="#FFFFFF" />
    <rect x="19" y="30" width="1" height="1" fill="#FFFFFF" />
    <rect x="20" y="30" width="1" height="1" fill="#FFFFFF" />
    <rect x="21" y="30" width="1" height="1" fill="#FFFFFF" />
    <rect x="22" y="30" width="1" height="1" fill="#FFFFFF" />
    <rect x="23" y="30" width="1" height="1" fill="#FFFFFF" />
    <rect x="24" y="30" width="1" height="1" fill="#FFFFFF" />
    <rect x="25" y="30" width="1" height="1" fill="#FFFFFF" />
    <rect x="26" y="30" width="1" height="1" fill="#FFFFFF" />
    <rect x="27" y="30" width="1" height="1" fill="#FFFFFF" />
    <rect x="28" y="30" width="1" height="1" fill="#000000" />
    <rect x="1" y="31" width="1" height="1" fill="#000000" />
    <rect x="2" y="31" width="1" height="1" fill="#000000" />
    <rect x="3" y="31" width="1" height="1" fill="#000000" />
    <rect x="4" y="31" width="1" height="1" fill="#000000" />
    <rect x="5" y="31" width="1" height="1" fill="#000000" />
    <rect x="6" y="31" width="1" height="1" fill="#000000" />
    <rect x="7" y="31" width="1" height="1" fill="#000000" />
    <rect x="8" y="31" width="1" height="1" fill="#000000" />
    <rect x="9" y="31" width="1" height="1" fill="#000000" />
    <rect x="10" y="31" width="1" height="1" fill="#000000" />
    <rect x="11" y="31" width="1" height="1" fill="#000000" />
    <rect x="12" y="31" width="1" height="1" fill="#000000" />
    <rect x="13" y="31" width="1" height="1" fill="#000000" />
    <rect x="14" y="31" width="1" height="1" fill="#000000" />
    <rect x="15" y="31" width="1" height="1" fill="#000000" />
    <rect x="16" y="31" width="1" height="1" fill="#000000" />
    <rect x="17" y="31" width="1" height="1" fill="#000000" />
    <rect x="18" y="31" width="1" height="1" fill="#000000" />
    <rect x="19" y="31" width="1" height="1" fill="#000000" />
    <rect x="20" y="31" width="1" height="1" fill="#000000" />
    <rect x="21" y="31" width="1" height="1" fill="#000000" />
    <rect x="22" y="31" width="1" height="1" fill="#000000" />
    <rect x="23" y="31" width="1" height="1" fill="#000000" />
    <rect x="24" y="31" width="1" height="1" fill="#000000" />
    <rect x="25" y="31" width="1" height="1" fill="#000000" />
    <rect x="26" y="31" width="1" height="1" fill="#000000" />
    <rect x="27" y="31" width="1" height="1" fill="#000000" />
</svg>